<?xml version="1.0" standalone="no"?>
<!DOCTYPE svg PUBLIC "-//W3C//DTD SVG 20010904//EN"
 "http://www.w3.org/TR/2001/REC-SVG-20010904/DTD/svg10.dtd">
<svg version="1.0" xmlns="http://www.w3.org/2000/svg"
 width="640.000000pt" height="640.000000pt" viewBox="0 0 640.000000 640.000000"
 preserveAspectRatio="xMidYMid meet">

<g transform="translate(0.000000,640.000000) scale(0.100000,-0.100000)"
fill="#000000" stroke="none">
<path d="M933 4543 c-7 -15 -13 -42 -13 -60 0 -18 -4 -33 -10 -33 -5 0 -10 20
-10 45 0 25 -4 45 -10 45 -6 0 -10 -28 -10 -65 0 -37 -4 -65 -10 -65 -5 0 -10
-13 -10 -30 0 -17 -5 -30 -12 -30 -15 0 -38 45 -38 71 0 10 -4 21 -10 24 -5 3
-10 15 -10 26 0 10 -4 19 -8 19 -14 0 -31 -42 -37 -97 -4 -30 -12 -54 -21 -57
-8 -3 -14 -15 -14 -26 0 -11 -4 -20 -10 -20 -5 0 -10 -18 -10 -41 0 -28 -4
-39 -12 -37 -8 3 -14 29 -16 69 -2 35 -7 68 -13 74 -5 5 -9 24 -9 42 0 18 -4
33 -9 33 -4 0 -11 -44 -14 -97 -4 -72 -10 -100 -21 -109 -11 -7 -16 -27 -16
-58 0 -25 -4 -46 -10 -46 -6 0 -10 35 -10 85 0 86 -12 113 -24 53 -21 -109
-28 -138 -37 -144 -5 -3 -9 -29 -9 -58 0 -28 -4 -56 -9 -61 -5 -6 -11 -23 -13
-40 -2 -17 -7 4 -12 50 -12 109 -46 157 -46 64 0 -21 -4 -41 -10 -44 -5 -3
-10 -21 -10 -38 0 -18 -7 -41 -15 -51 -8 -11 -15 -27 -15 -36 0 -8 -9 -23 -20
-33 -20 -16 -20 -16 -20 33 0 28 -3 50 -6 50 -15 0 -33 -38 -34 -70 0 -19 -6
-47 -14 -62 -8 -15 -17 -57 -21 -93 l-7 -66 -24 47 c-13 26 -24 60 -24 76 0
15 -4 28 -10 28 -5 0 -10 -9 -10 -20 0 -11 -4 -20 -10 -20 -6 0 -10 -31 -10
-72 0 -51 -3 -68 -10 -58 -5 8 -10 28 -10 43 0 16 -4 26 -10 22 -5 -3 -10 -24
-10 -45 0 -21 -4 -41 -9 -44 -5 -3 -7 -30 -4 -60 3 -34 1 -56 -6 -60 -7 -5
-11 4 -11 26 0 38 -35 93 -44 68 -3 -8 -7 -46 -10 -85 -2 -38 -10 -110 -16
-160 -11 -85 -8 -262 7 -330 3 -16 8 -67 10 -112 3 -46 8 -83 12 -83 17 0 41
44 41 76 0 23 4 33 11 28 7 -4 9 -25 4 -59 -4 -34 -2 -55 4 -60 6 -3 11 -26
11 -51 0 -24 5 -44 10 -44 6 0 10 16 10 35 0 19 5 35 10 35 6 0 10 -30 10 -70
0 -38 4 -70 9 -70 5 0 12 -10 17 -22 6 -19 8 -16 11 20 2 23 8 42 12 42 5 0
12 10 16 23 5 12 11 31 15 42 4 13 9 -6 14 -52 4 -40 15 -87 24 -105 9 -18 15
-42 14 -53 -3 -24 22 -78 31 -68 4 3 8 34 8 67 1 34 4 51 6 38 3 -13 11 -26
19 -29 8 -3 14 -15 14 -27 0 -12 7 -31 15 -42 8 -10 15 -33 15 -51 0 -17 5
-35 10 -38 6 -3 10 -24 10 -45 0 -21 5 -42 10 -45 6 -3 10 1 10 9 0 9 4 16 9
16 5 0 12 32 16 71 7 68 8 69 21 44 8 -15 14 -52 14 -81 0 -30 4 -54 9 -54 5
0 12 -15 15 -32 4 -18 8 -40 10 -48 2 -8 7 -34 11 -57 12 -67 25 -40 25 53 0
54 4 83 10 79 5 -3 10 -28 10 -56 0 -35 4 -49 14 -49 15 0 26 -61 26 -151 0
-33 4 -59 10 -59 6 0 10 14 10 31 0 17 4 38 9 47 5 10 11 44 13 76 3 66 28 94
28 32 0 -19 4 -37 9 -41 19 -11 41 -69 47 -121 4 -33 14 -60 25 -70 18 -16 19
-16 19 4 0 11 5 24 10 27 6 3 10 14 10 24 0 26 30 82 41 76 5 -4 9 -19 9 -36
0 -16 5 -29 10 -29 6 0 10 -29 10 -66 0 -41 4 -63 10 -59 6 3 10 24 10 46 0
21 5 39 10 39 6 0 10 -15 10 -33 0 -47 27 -96 56 -103 34 -9 74 3 74 22 0 8 7
22 15 31 11 10 14 25 9 49 -4 22 -2 34 5 34 6 0 11 -17 11 -39 0 -22 4 -42 9
-45 11 -7 25 69 16 84 -4 6 0 21 8 34 8 12 17 32 19 45 5 35 22 26 33 -18 6
-21 13 -43 18 -47 4 -4 7 -18 7 -31 0 -12 4 -23 10 -23 16 0 28 32 35 93 5 35
13 61 21 64 8 3 14 13 14 23 0 10 5 20 11 22 6 2 11 19 12 38 4 66 22 31 37
-69 8 -55 18 -103 23 -107 4 -4 7 25 7 64 0 39 5 74 10 77 5 3 10 19 10 36 0
19 5 29 15 29 11 0 15 12 15 50 0 28 5 50 10 50 6 0 10 -35 10 -85 0 -47 4
-85 8 -85 5 0 14 38 21 85 7 47 17 88 22 91 5 3 9 25 9 50 0 25 5 55 12 67 7
12 13 31 15 41 7 43 13 25 13 -40 0 -65 15 -124 33 -124 4 0 7 18 7 39 0 22 5
43 10 46 5 3 10 23 10 43 0 21 9 48 20 62 11 14 20 33 20 42 0 16 17 34 25 26
2 -2 6 -22 9 -43 2 -22 5 -42 5 -44 1 -3 6 0 13 7 6 6 15 37 19 68 4 31 12 60
17 63 5 3 13 39 17 79 4 39 10 72 14 72 10 0 41 -83 41 -112 0 -15 5 -30 10
-33 6 -3 10 3 10 13 0 11 6 22 14 25 11 4 13 19 9 65 -4 39 -2 62 6 66 7 5 11
-5 11 -28 0 -20 5 -36 10 -36 6 0 10 18 10 39 0 22 4 43 10 46 5 3 10 35 10
71 0 41 4 63 10 59 6 -3 10 -21 10 -38 1 -29 19 -67 33 -67 3 0 8 35 11 78 8
120 17 186 28 199 12 15 12 201 0 217 -6 6 -12 38 -15 71 -3 33 -8 69 -10 80
-3 11 -6 47 -6 80 l-1 60 -20 -25 c-11 -14 -20 -40 -20 -57 0 -18 -4 -33 -10
-33 -6 0 -10 26 -10 59 0 33 -4 63 -10 66 -5 3 -10 24 -10 46 0 50 -20 52 -21
2 0 -30 -2 -34 -9 -18 -4 11 -5 41 -3 67 5 38 2 49 -11 54 -9 3 -16 15 -16 25
0 10 -4 19 -10 19 -5 0 -10 -17 -10 -37 0 -21 -7 -47 -15 -57 -8 -11 -15 -28
-15 -38 0 -10 -5 -18 -10 -18 -6 0 -10 15 -10 33 0 47 -11 111 -22 118 -4 3
-11 29 -15 57 -3 29 -11 60 -18 69 -11 15 -14 12 -20 -29 -5 -34 -11 -45 -21
-41 -8 3 -14 11 -14 17 0 18 -24 66 -32 66 -5 0 -8 18 -8 39 0 22 -4 43 -10
46 -5 3 -10 24 -10 46 0 21 -4 39 -10 39 -5 0 -10 -7 -10 -15 0 -8 -4 -15 -10
-15 -6 0 -10 -36 -10 -87 0 -82 -7 -103 -16 -51 -16 92 -30 154 -36 163 -3 6
-12 47 -19 93 -7 45 -16 82 -21 82 -4 0 -8 -36 -8 -79 0 -44 -4 -83 -10 -86
-6 -4 -10 13 -10 44 0 37 -4 51 -14 51 -15 0 -23 34 -34 145 -4 39 -10 66 -13
60 -6 -9 -26 -127 -31 -185 -4 -37 -23 -30 -26 10 -2 19 -8 39 -13 45 -5 5 -9
17 -9 26 0 9 -6 19 -14 22 -8 3 -15 14 -15 24 -1 38 -14 99 -23 110 -13 17
-28 7 -28 -18 0 -10 -4 -19 -10 -19 -5 0 -10 -12 -10 -26 0 -29 -16 -64 -30
-64 -6 0 -10 13 -10 29 0 16 -6 31 -13 34 -10 4 -13 21 -12 59 1 29 0 57 -3
62 -7 13 -20 -22 -21 -57 -1 -18 -5 -26 -12 -21 -6 4 -8 20 -4 40 4 26 2 36
-10 40 -8 3 -15 12 -15 20 0 10 -14 14 -52 14 -48 0 -54 -3 -65 -27z m77 -433
c0 -27 5 -50 10 -50 6 0 10 9 10 19 0 11 5 23 10 26 6 4 10 -13 10 -44 0 -28
5 -51 10 -51 6 0 10 20 10 45 0 33 4 45 15 45 15 0 19 -15 16 -57 -1 -11 3
-24 8 -28 6 -3 11 -22 11 -41 0 -36 25 -50 32 -16 5 25 38 -43 38 -79 0 -15 5
-31 10 -34 6 -3 10 -19 10 -36 0 -16 5 -29 10 -29 6 0 10 41 10 102 0 75 3 99
11 91 6 -6 14 -32 16 -57 3 -25 10 -46 14 -46 5 0 9 -11 9 -25 0 -14 5 -25 10
-25 6 0 10 18 10 39 0 42 16 63 31 40 4 -7 8 -38 8 -69 1 -100 21 -168 37
-126 9 23 24 20 24 -4 0 -11 5 -20 10 -20 6 0 10 -15 10 -34 0 -19 5 -38 10
-41 6 -3 10 -33 10 -66 0 -85 17 -73 25 19 8 96 12 109 27 94 7 -7 14 -39 16
-72 5 -71 17 -78 25 -15 2 26 7 48 10 51 10 10 27 -7 27 -27 0 -10 5 -19 10
-19 6 0 10 -37 10 -90 0 -53 4 -90 10 -90 6 0 10 -7 10 -15 0 -21 20 -19 21 3
3 45 5 52 13 49 5 -1 10 -29 11 -62 4 -73 14 -125 26 -125 5 0 9 18 9 40 0 27
7 47 20 60 20 20 20 20 20 -20 0 -22 5 -40 10 -40 6 0 10 20 10 45 0 25 5 45
10 45 6 0 10 -20 10 -44 0 -25 5 -48 10 -51 6 -3 10 -35 10 -70 0 -35 -4 -67
-10 -70 -5 -3 -10 -26 -10 -51 0 -28 -4 -43 -10 -39 -5 3 -10 24 -10 46 0 56
-20 48 -21 -8 -1 -27 -4 -39 -6 -28 -3 11 -11 24 -19 28 -8 5 -14 24 -14 47 0
22 -4 40 -10 40 -5 0 -10 -11 -10 -24 0 -14 -4 -28 -10 -31 -5 -3 -10 -39 -11
-78 l-1 -72 -11 50 -12 49 -17 -27 c-13 -19 -18 -47 -18 -102 0 -41 -4 -83 -9
-93 -5 -9 -12 -25 -15 -36 -10 -31 -36 1 -36 45 0 22 -4 39 -10 39 -5 0 -10
-19 -10 -42 -1 -114 -32 -114 -44 0 -9 95 -26 109 -26 23 0 -33 -4 -63 -10
-66 -5 -3 -10 -22 -10 -41 0 -19 -4 -34 -10 -34 -5 0 -10 -9 -10 -20 0 -11 -4
-20 -10 -20 -5 0 -10 7 -10 16 0 9 -6 14 -12 11 -7 -2 -12 -12 -11 -23 1 -10
-2 -25 -7 -34 -5 -9 -9 -42 -11 -75 -2 -60 -13 -90 -30 -79 -5 3 -9 23 -9 45
0 21 -3 39 -8 39 -9 0 -32 -72 -32 -99 0 -11 -5 -23 -10 -26 -6 -4 -8 -10 -5
-15 3 -5 1 -11 -5 -15 -6 -4 -10 29 -10 94 0 61 -4 101 -10 101 -5 0 -10 -13
-10 -29 0 -17 -4 -33 -10 -36 -5 -3 -10 -22 -10 -41 0 -19 -4 -34 -10 -34 -5
0 -10 -9 -10 -20 0 -24 -15 -27 -24 -4 -14 36 -28 0 -42 -113 -8 -57 -34 -59
-34 -4 0 22 -4 43 -10 46 -6 4 -10 -12 -10 -39 0 -25 -4 -46 -10 -46 -5 0 -10
9 -10 20 0 11 -4 20 -10 20 -5 0 -10 -22 -10 -50 0 -27 -4 -50 -10 -50 -5 0
-10 23 -10 50 0 53 -14 66 -30 28 -7 -19 -9 -14 -9 25 -1 46 -20 69 -22 25 -1
-31 -6 -59 -13 -65 -12 -13 -26 12 -26 47 0 21 -4 42 -10 45 -5 3 -10 22 -10
41 0 19 -4 34 -10 34 -5 0 -10 -7 -10 -15 0 -8 -4 -15 -10 -15 -5 0 -10 9 -10
19 0 10 -7 22 -16 25 -11 4 -14 13 -10 30 3 14 2 28 -4 31 -5 3 -10 21 -10 40
0 19 -4 37 -10 40 -6 4 -10 -32 -10 -99 0 -64 -4 -106 -10 -106 -5 0 -10 9
-10 19 0 11 -4 22 -9 25 -8 6 -21 61 -22 99 0 29 -23 13 -26 -18 -6 -85 -33
-65 -33 26 0 39 -4 69 -10 69 -5 0 -10 16 -10 35 0 19 -4 35 -10 35 -5 0 -10
-7 -10 -15 0 -8 -4 -15 -10 -15 -5 0 -10 9 -10 19 0 10 -6 21 -14 24 -16 6
-27 68 -26 145 1 28 -3 52 -8 52 -10 0 -19 -38 -28 -122 -10 -79 -27 -56 -36
47 -4 45 -23 36 -26 -12 -2 -25 -8 -43 -15 -43 -23 0 -37 54 -37 137 0 65 -3
85 -15 89 -8 4 -15 13 -15 21 0 8 -4 11 -10 8 -6 -3 -10 -24 -10 -46 0 -75
-17 -30 -22 56 -5 97 -22 131 -31 64 -7 -53 -31 -72 -35 -28 -5 44 -26 30 -33
-22 -6 -47 -14 -39 -24 26 -14 90 -17 157 -6 168 6 6 11 30 11 54 0 48 19 60
21 13 2 -49 3 -53 17 -57 8 -3 12 6 12 26 0 57 33 32 36 -27 3 -35 10 -50 20
-40 3 3 8 47 11 97 6 91 23 138 23 63 0 -53 9 -58 31 -17 13 24 19 56 19 102
0 123 50 189 54 72 1 -43 21 -35 22 9 2 81 33 128 36 55 2 -56 3 -61 11 -69 4
-4 7 -22 7 -41 0 -18 5 -33 11 -33 6 0 10 23 9 58 -1 77 9 132 26 139 8 3 14
14 14 24 0 10 5 19 10 19 6 0 10 -7 10 -15 0 -8 5 -15 10 -15 6 0 10 16 10 35
0 19 4 35 10 35 5 0 10 32 12 72 3 81 25 108 30 37 3 -41 27 -69 27 -32 1 21
15 89 26 121 16 47 25 18 25 -78 0 -60 4 -100 10 -100 6 0 10 15 10 34 0 19 4
37 8 40 5 3 8 19 7 35 -1 17 4 32 12 35 7 3 13 15 13 26 0 11 5 20 10 20 6 0
10 -7 10 -15 0 -8 5 -15 10 -15 6 0 10 13 10 28 0 15 4 32 9 38 5 5 11 27 13
48 4 56 25 57 33 2 8 -49 28 -64 25 -18 -1 15 -1 38 0 52 l2 25 12 -29 c14
-31 29 -22 26 17 -4 39 0 57 10 57 6 0 10 -22 10 -50z"/>
<path d="M4067 4163 c-4 -3 -7 -165 -7 -360 0 -194 -3 -353 -7 -353 -5 0 -19
12 -32 26 -32 34 -108 71 -171 85 -40 8 -67 7 -126 -5 -127 -26 -219 -97 -277
-215 -30 -62 -32 -73 -32 -171 0 -129 21 -189 96 -273 70 -79 155 -119 264
-125 96 -5 164 18 237 79 l47 39 3 -52 3 -53 78 -3 77 -3 0 696 0 695 -73 0
c-41 0 -77 -3 -80 -7z m-137 -783 c145 -74 175 -265 59 -382 -55 -55 -107 -73
-192 -65 -228 20 -296 317 -100 438 19 12 49 26 67 30 44 11 122 1 166 -21z"/>
<path d="M2840 3555 c-65 -15 -165 -59 -208 -93 l-22 -17 37 -60 c20 -33 38
-62 40 -64 1 -2 11 3 21 12 10 9 45 28 77 43 48 21 76 27 136 27 105 1 152
-32 166 -115 l5 -35 -123 -6 c-198 -10 -300 -46 -353 -127 -57 -86 -44 -193
32 -269 100 -99 283 -110 399 -24 17 12 34 23 37 23 3 0 6 -16 6 -35 l0 -35
81 0 80 0 -3 283 c-3 280 -3 282 -29 337 -14 30 -41 70 -59 87 -67 66 -203 94
-320 68z m250 -482 c0 -91 -71 -159 -174 -170 -96 -10 -176 36 -176 102 0 36
30 73 72 89 57 20 77 23 186 25 l92 1 0 -47z"/>
<path d="M5226 3555 c-89 -23 -216 -91 -216 -116 0 -6 45 -85 67 -118 1 -2 9
1 17 8 29 24 133 68 176 75 110 16 196 -31 207 -112 l6 -42 -89 0 c-99 -1
-220 -19 -275 -43 -64 -26 -117 -83 -135 -143 -46 -159 80 -295 274 -294 76 1
127 16 176 54 45 34 51 33 51 -6 l0 -33 78 -3 78 -3 -3 288 -3 288 -29 58
c-32 67 -95 119 -164 137 -74 18 -154 20 -216 5z m254 -480 c0 -74 -39 -129
-112 -160 -83 -34 -206 -5 -226 55 -18 50 0 90 52 117 48 25 83 31 189 32 l97
1 0 -45z"/>
<path d="M6050 3563 c-99 -17 -163 -60 -202 -137 -16 -32 -19 -52 -15 -103 9
-112 64 -160 260 -225 131 -44 156 -65 140 -115 -30 -88 -193 -95 -288 -12
l-33 29 -61 -36 c-34 -20 -61 -41 -61 -47 0 -27 94 -96 165 -122 65 -24 85
-27 162 -23 145 7 225 55 263 155 26 71 25 107 -8 173 -33 67 -79 97 -225 147
-56 20 -114 44 -129 55 -33 23 -36 56 -10 88 38 47 188 34 237 -20 17 -19 18
-18 66 23 27 23 49 45 49 49 0 15 -53 59 -98 82 -43 22 -148 48 -176 45 -6 -1
-22 -4 -36 -6z"/>
<path d="M4825 3544 c-58 -21 -126 -70 -159 -115 -16 -21 -32 -36 -35 -33 -3
3 -6 38 -7 77 l-1 72 -81 3 -82 3 2 -383 3 -383 78 0 78 0 1 135 c0 177 12
292 34 327 47 75 96 106 187 117 l57 7 0 95 c0 106 0 105 -75 78z"/>
</g>
</svg>
